HIERARCHY
ROOT Hips
{
	OFFSET 0.000000 0.000000 0.000000
	CHANNELS 6 Xposition Yposition Zposition Zrotation Yrotation Xrotation 
	JOINT Spine
	{
		OFFSET 0.000000 10.181600 0.131500
		CHANNELS 3 Zrotation Yrotation Xrotation
		JOINT Spine1
		{
			OFFSET 0.000000 10.083500 -1.000800
			CHANNELS 3 Zrotation Yrotation Xrotation
			JOINT Spine2
			{
				OFFSET 0.000000 9.100000 -1.373400
				CHANNELS 3 Zrotation Yrotation Xrotation
				JOINT Neck
				{
					OFFSET 0.000000 16.671700 -2.516200
					CHANNELS 3 Zrotation Yrotation Xrotation
					JOINT Head
					{
						OFFSET -0.000000 9.617900 1.685000
						CHANNELS 3 Zrotation Yrotation Xrotation
						JOINT HeadTop_End
						{
							OFFSET -0.000000 17.815200 2.585000
							CHANNELS 3 Zrotation Yrotation Xrotation
							End Site
							{
								OFFSET 0.000000 0.000000 0.000000
							}
						}
						JOINT LeftEye
						{
							OFFSET 3.067600 6.409500 9.283600
							CHANNELS 3 Zrotation Yrotation Xrotation
							End Site
							{
								OFFSET 0.000000 0.000000 0.000000
							}
						}
						JOINT RightEye
						{
							OFFSET -3.067600 6.409500 9.283500
							CHANNELS 3 Zrotation Yrotation Xrotation
							End Site
							{
								OFFSET 0.000000 0.000000 0.000000
							}
						}
					}
				}
				JOINT LeftShoulder
				{
					OFFSET 4.570400 10.946000 -2.628000
					CHANNELS 3 Zrotation Yrotation Xrotation
					JOINT LeftArm
					{
						OFFSET 10.592400 -0.524600 -2.232100
						CHANNELS 3 Zrotation Yrotation Xrotation
						JOINT LeftForeArm
						{
							OFFSET 27.841500 -0.000100 0.000000
							CHANNELS 3 Zrotation Yrotation Xrotation
							JOINT LeftHand
							{
								OFFSET 28.328800 -0.000000 0.000000
								CHANNELS 3 Zrotation Yrotation Xrotation
								JOINT LeftHandThumb1
								{
									OFFSET 2.466100 -1.575000 2.682400
									CHANNELS 3 Zrotation Yrotation Xrotation
									JOINT LeftHandThumb2
									{
										OFFSET 3.229800 -1.864700 1.864700
										CHANNELS 3 Zrotation Yrotation Xrotation
										JOINT LeftHandThumb3
										{
											OFFSET 2.652600 -1.531500 1.531500
											CHANNELS 3 Zrotation Yrotation Xrotation
											JOINT LeftHandThumb4
											{
												OFFSET 1.954600 -1.128500 1.128500
												CHANNELS 3 Zrotation Yrotation Xrotation
												End Site
												{
													OFFSET 0.000000 0.000000 0.000000
												}
											}
										}
									}
								}
								JOINT LeftHandIndex1
								{
									OFFSET 9.109300 -0.517100 2.260100
									CHANNELS 3 Zrotation Yrotation Xrotation
									JOINT LeftHandIndex2
									{
										OFFSET 3.676400 -0.000000 0.000000
										CHANNELS 3 Zrotation Yrotation Xrotation
										JOINT LeftHandIndex3
										{
											OFFSET 2.883100 0.000000 -0.000000
											CHANNELS 3 Zrotation Yrotation Xrotation
											JOINT LeftHandIndex4
											{
												OFFSET 2.392700 0.000000 0.000000
												CHANNELS 3 Zrotation Yrotation Xrotation
												End Site
												{
													OFFSET 0.000000 0.000000 0.000000
												}
											}
										}
									}
								}
								JOINT LeftHandMiddle1
								{
									OFFSET 9.533400 -0.000000 0.000000
									CHANNELS 3 Zrotation Yrotation Xrotation
									JOINT LeftHandMiddle2
									{
										OFFSET 3.698200 0.000000 0.000000
										CHANNELS 3 Zrotation Yrotation Xrotation
										JOINT LeftHandMiddle3
										{
											OFFSET 2.950900 -0.000000 0.000000
											CHANNELS 3 Zrotation Yrotation Xrotation
											JOINT LeftHandMiddle4
											{
												OFFSET 2.833900 -0.000000 -0.000000
												CHANNELS 3 Zrotation Yrotation Xrotation
												End Site
												{
													OFFSET 0.000000 0.000000 0.000000
												}
											}
										}
									}
								}
								JOINT LeftHandRing1
								{
									OFFSET 9.104500 -0.043900 -1.865100
									CHANNELS 3 Zrotation Yrotation Xrotation
									JOINT LeftHandRing2
									{
										OFFSET 3.154000 -0.000000 0.000000
										CHANNELS 3 Zrotation Yrotation Xrotation
										JOINT LeftHandRing3
										{
											OFFSET 2.937700 -0.000000 -0.000000
											CHANNELS 3 Zrotation Yrotation Xrotation
											JOINT LeftHandRing4
											{
												OFFSET 2.647500 -0.000000 0.000000
												CHANNELS 3 Zrotation Yrotation Xrotation
												End Site
												{
													OFFSET 0.000000 0.000000 0.000000
												}
											}
										}
									}
								}
								JOINT LeftHandPinky1
								{
									OFFSET 8.077800 -0.488700 -3.806100
									CHANNELS 3 Zrotation Yrotation Xrotation
									JOINT LeftHandPinky2
									{
										OFFSET 3.600000 -0.000000 -0.000000
										CHANNELS 3 Zrotation Yrotation Xrotation
										JOINT LeftHandPinky3
										{
											OFFSET 2.114200 0.000000 -0.000000
											CHANNELS 3 Zrotation Yrotation Xrotation
											JOINT LeftHandPinky4
											{
												OFFSET 1.975700 0.000000 -0.000000
												CHANNELS 3 Zrotation Yrotation Xrotation
												End Site
												{
													OFFSET 0.000000 0.000000 0.000000
												}
											}
										}
									}
								}
							}
						}
					}
				}
				JOINT RightShoulder
				{
					OFFSET -4.570000 10.946200 -2.628000
					CHANNELS 3 Zrotation Yrotation Xrotation
					JOINT RightArm
					{
						OFFSET -10.592800 -0.524800 -2.232100
						CHANNELS 3 Zrotation Yrotation Xrotation
						JOINT RightForeArm
						{
							OFFSET -27.841500 -0.000000 0.000000
							CHANNELS 3 Zrotation Yrotation Xrotation
							JOINT RightHand
							{
								OFFSET -28.328800 -0.000000 0.000100
								CHANNELS 3 Zrotation Yrotation Xrotation
								JOINT RightHandPinky1
								{
									OFFSET -8.076700 -0.488500 -3.806000
									CHANNELS 3 Zrotation Yrotation Xrotation
									JOINT RightHandPinky2
									{
										OFFSET -3.600000 0.000000 0.000100
										CHANNELS 3 Zrotation Yrotation Xrotation
										JOINT RightHandPinky3
										{
											OFFSET -2.114200 0.000000 0.000000
											CHANNELS 3 Zrotation Yrotation Xrotation
											JOINT RightHandPinky4
											{
												OFFSET -1.975700 -0.000000 -0.000000
												CHANNELS 3 Zrotation Yrotation Xrotation
												End Site
												{
													OFFSET 0.000000 0.000000 0.000000
												}
											}
										}
									}
								}
								JOINT RightHandRing1
								{
									OFFSET -9.103600 -0.043900 -1.865100
									CHANNELS 3 Zrotation Yrotation Xrotation
									JOINT RightHandRing2
									{
										OFFSET -3.154000 0.000000 0.000000
										CHANNELS 3 Zrotation Yrotation Xrotation
										JOINT RightHandRing3
										{
											OFFSET -2.937700 -0.000000 -0.000000
											CHANNELS 3 Zrotation Yrotation Xrotation
											JOINT RightHandRing4
											{
												OFFSET -2.647500 0.000000 -0.000000
												CHANNELS 3 Zrotation Yrotation Xrotation
												End Site
												{
													OFFSET 0.000000 0.000000 0.000000
												}
											}
										}
									}
								}
								JOINT RightHandMiddle1
								{
									OFFSET -9.532500 -0.000000 0.000000
									CHANNELS 3 Zrotation Yrotation Xrotation
									JOINT RightHandMiddle2
									{
										OFFSET -3.698200 0.000000 -0.000000
										CHANNELS 3 Zrotation Yrotation Xrotation
										JOINT RightHandMiddle3
										{
											OFFSET -2.950900 -0.000000 -0.000000
											CHANNELS 3 Zrotation Yrotation Xrotation
											JOINT RightHandMiddle4
											{
												OFFSET -2.833900 0.000000 0.000100
												CHANNELS 3 Zrotation Yrotation Xrotation
												End Site
												{
													OFFSET 0.000000 0.000000 0.000000
												}
											}
										}
									}
								}
								JOINT RightHandIndex1
								{
									OFFSET -9.108300 -0.516800 2.260100
									CHANNELS 3 Zrotation Yrotation Xrotation
									JOINT RightHandIndex2
									{
										OFFSET -3.676400 0.000000 0.000000
										CHANNELS 3 Zrotation Yrotation Xrotation
										JOINT RightHandIndex3
										{
											OFFSET -2.883100 -0.000000 0.000000
											CHANNELS 3 Zrotation Yrotation Xrotation
											JOINT RightHandIndex4
											{
												OFFSET -2.392700 0.000000 0.000000
												CHANNELS 3 Zrotation Yrotation Xrotation
												End Site
												{
													OFFSET 0.000000 0.000000 0.000000
												}
											}
										}
									}
								}
								JOINT RightHandThumb1
								{
									OFFSET -2.464800 -1.572700 2.682600
									CHANNELS 3 Zrotation Yrotation Xrotation
									JOINT RightHandThumb2
									{
										OFFSET -3.229800 -1.864700 1.864700
										CHANNELS 3 Zrotation Yrotation Xrotation
										JOINT RightHandThumb3
										{
											OFFSET -2.652600 -1.531400 1.531400
											CHANNELS 3 Zrotation Yrotation Xrotation
											JOINT RightHandThumb4
											{
												OFFSET -1.954600 -1.128500 1.128500
												CHANNELS 3 Zrotation Yrotation Xrotation
												End Site
												{
													OFFSET 0.000000 0.000000 0.000000
												}
											}
										}
									}
								}
							}
						}
					}
				}
			}
		}
	}
	JOINT LeftUpLeg
	{
		OFFSET 8.207800 -6.751700 -1.599600
		CHANNELS 3 Zrotation Yrotation Xrotation
		JOINT LeftLeg
		{
			OFFSET -0.000000 -44.370500 0.284600
			CHANNELS 3 Zrotation Yrotation Xrotation
			JOINT LeftFoot
			{
				OFFSET 0.000000 -44.427900 -2.982200
				CHANNELS 3 Zrotation Yrotation Xrotation
				JOINT LeftToeBase
				{
					OFFSET -0.000000 -8.728700 10.710600
					CHANNELS 3 Zrotation Yrotation Xrotation
					JOINT LeftToe_End
					{
						OFFSET -0.000000 -0.000700 9.278100
						CHANNELS 3 Zrotation Yrotation Xrotation
						End Site
						{
							OFFSET 0.000000 0.000000 0.000000
						}
					}
				}
			}
		}
	}
	JOINT RightUpLeg
	{
		OFFSET -8.207800 -6.751700 -1.599600
		CHANNELS 3 Zrotation Yrotation Xrotation
		JOINT RightLeg
		{
			OFFSET 0.000000 -44.370500 0.286200
			CHANNELS 3 Zrotation Yrotation Xrotation
			JOINT RightFoot
			{
				OFFSET 0.000000 -44.427700 -2.983800
				CHANNELS 3 Zrotation Yrotation Xrotation
				JOINT RightToeBase
				{
					OFFSET -0.000000 -8.728700 10.710600
					CHANNELS 3 Zrotation Yrotation Xrotation
					JOINT RightToe_End
					{
						OFFSET -0.000000 -0.000700 9.278100
						CHANNELS 3 Zrotation Yrotation Xrotation
						End Site
						{
							OFFSET 0.000000 0.000000 0.000000
						}
					}
				}
			}
		}
	}
}
MOTION
Frames: 5
Frame Time: 0.033333
-0.432552 92.336227 3.008605 -8.338138 5.403940 -9.780971 -8.048553 -21.075640 9.722779 5.100160 -3.123679 1.621582 5.048242 -3.060901 1.868666 -4.577839 -5.335498 0.291048 11.109923 -33.928295 -4.791808 0.000000 0.000000 0.000000 0.000000 0.000000 0.000000 0.000000 0.000000 0.000000 -5.461067 -6.413314 1.314802 -56.141144 -59.894207 24.467798 179.999802 -86.964989 -179.999832 -1.354050 -3.733949 68.181953 6.061774 3.826431 -1.148864 1.299533 7.877598 4.081827 2.523226 1.599737 -0.508689 0.000000 0.000000 0.000000 -19.395901 2.286334 -0.390766 -17.647314 2.087296 -0.324058 -16.894632 2.001001 -0.297187 0.000000 0.000000 0.000000 -20.071346 2.362636 -0.418154 -18.423004 2.175852 -0.352912 -18.915785 2.231896 -0.371847 0.000000 0.000000 0.000000 -20.957407 2.462230 -0.455465 -19.338991 2.279891 -0.388495 -21.460068 2.518465 -0.477310 0.000000 0.000000 0.000000 -21.181839 6.599184 -0.448057 -20.566185 -1.440081 0.989550 -23.512180 2.745918 -0.571560 0.000000 0.000000 0.000000 -4.540792 -5.178791 -0.075075 39.603069 -4.677632 -65.437607 0.000005 86.472282 0.000047 -32.210365 17.624111 22.612625 33.020657 -3.786389 -1.122222 26.480049 -3.096903 -0.728440 17.434706 -2.083059 -0.319431 0.000000 0.000000 0.000000 28.419815 -3.306621 -0.837528 22.373066 -2.645606 -0.523287 13.313083 -1.601227 -0.186878 0.000000 0.000000 0.000000 22.679705 -2.679921 -0.537530 17.227818 -2.059121 -0.311957 8.181080 -0.991702 -0.070777 0.000000 0.000000 0.000000 18.092775 -2.159037 -0.343791 13.111159 -1.577377 -0.181292 4.081358 -0.495032 -0.017632 0.000000 0.000000 0.000000 -6.488741 -3.762498 -1.439570 -0.926598 -8.586014 4.725164 -2.098855 0.088613 -1.277550 0.000000 0.000000 0.000000 9.268817 9.996538 3.580060 -2.546181 5.641726 57.894035 0.207854 0.003137 -14.693857 1.523833 0.673254 -24.802217 0.000000 0.000000 0.000000 14.162876 12.445507 -24.485998 -2.627973 -11.797374 49.098156 -7.596822 -2.844842 -15.414542 -0.000001 0.000000 -0.764363 0.000000 0.000000 0.000000 
-0.404159 92.180244 3.466901 -8.425864 4.915139 -8.956222 -8.353109 -20.511833 10.027878 5.194282 -3.072124 1.750890 5.139979 -3.003659 1.998419 -3.985972 -4.928234 -0.134681 11.738647 -31.005297 -5.528275 0.000000 0.000000 0.000000 0.000000 0.000000 0.000000 0.000000 0.000000 0.000000 -4.465023 -6.916414 1.284175 -54.840340 -59.671112 21.780724 179.999802 -87.102509 179.999863 -0.898993 -3.541167 65.991066 6.061774 3.826431 -1.148864 1.299533 7.877598 4.081827 2.523226 1.599737 -0.508689 0.000000 0.000000 0.000000 -18.943405 2.235029 -0.372937 -17.421103 2.061391 -0.315853 -16.668467 1.975006 -0.289355 0.000000 0.000000 0.000000 -20.304651 2.388916 -0.427857 -18.539824 2.189162 -0.357338 -19.032192 2.245106 -0.376401 0.000000 0.000000 0.000000 -22.048149 2.583998 -0.503492 -19.885210 2.341643 -0.410536 -22.004492 2.579148 -0.501520 0.000000 0.000000 0.000000 -22.964872 6.796775 -0.528751 -21.451256 -1.318002 1.010842 -24.401110 2.843360 -0.614907 0.000000 0.000000 0.000000 -2.164815 -4.740389 -0.076771 41.258301 -3.653084 -67.636597 179.999893 86.528229 179.999786 -34.129993 19.835415 20.363918 30.776237 -3.556033 -0.978548 25.359280 -2.974845 -0.669096 16.315716 -1.953238 -0.280018 0.000000 0.000000 0.000000 26.497311 -3.100180 -0.730085 21.411936 -2.537569 -0.479818 12.355107 -1.487920 -0.161063 0.000000 0.000000 0.000000 21.158121 -2.508915 -0.468654 16.467094 -1.970835 -0.285218 7.422282 -0.900466 -0.058264 0.000000 0.000000 0.000000 16.891090 -2.020085 -0.299974 12.510715 -1.506363 -0.165127 3.481295 -0.422341 -0.012835 0.000000 0.000000 0.000000 -6.488741 -3.762498 -1.439570 -0.926598 -8.586014 4.725164 -2.098855 0.088613 -1.277550 0.000000 0.000000 0.000000 8.976461 9.989940 3.228369 -0.896832 6.241910 57.283623 0.435539 -0.003323 -13.736407 1.265947 0.638297 -27.574587 0.000000 0.000000 0.000000 14.257574 12.341858 -25.142408 -2.762928 -11.852673 49.568050 -7.806546 -2.469355 -15.982084 -0.000001 -0.000000 -0.360164 0.000000 0.000000 0.000000 
-0.278425 92.700043 3.565196 -8.728139 4.860101 -7.773779 -8.445835 -20.181234 10.937423 5.431808 -3.065356 1.758566 5.381355 -2.986207 2.014923 -3.254468 -4.423372 -0.947893 12.422976 -27.183317 -7.094819 0.000000 0.000000 0.000000 0.000000 0.000000 0.000000 0.000000 0.000000 0.000000 -2.919185 -7.842577 1.237534 -52.147144 -61.918690 18.142895 -0.002893 -89.886894 0.005574 -0.249150 -4.796732 67.237213 6.061774 3.826431 -1.148864 1.299533 7.877598 4.081827 2.523226 1.599737 -0.508689 0.000000 0.000000 0.000000 -18.297256 2.161518 -0.348143 -17.098103 2.024354 -0.304345 -16.345486 1.937809 -0.278332 0.000000 0.000000 0.000000 -20.286301 2.386854 -0.427081 -18.530647 2.188105 -0.356995 -19.023050 2.244066 -0.376037 0.000000 0.000000 0.000000 -22.814884 2.669019 -0.538625 -20.269156 2.384926 -0.426373 -22.387167 2.621647 -0.518878 0.000000 0.000000 0.000000 -24.365156 6.950067 -0.596405 -22.145931 -1.221957 1.026241 -25.098961 2.919344 -0.649991 0.000000 0.000000 0.000000 -1.437055 -4.258990 -0.052137 40.570850 -3.056034 -68.191620 179.999939 84.817009 179.999939 -33.624699 20.205643 20.456264 29.525249 -3.425198 -0.902422 24.734472 -2.906311 -0.637031 15.691836 -1.880513 -0.259166 0.000000 0.000000 0.000000 25.729708 -3.016752 -0.689131 21.027517 -2.494148 -0.462952 11.973008 -1.442605 -0.151288 0.000000 0.000000 0.000000 20.993093 -2.490252 -0.461456 16.384274 -1.961219 -0.282369 7.340225 -0.890588 -0.056996 0.000000 0.000000 0.000000 17.207396 -2.056751 -0.311222 12.668748 -1.525067 -0.169308 3.639249 -0.441485 -0.014020 0.000000 0.000000 0.000000 -6.488741 -3.762498 -1.439570 -0.926598 -8.586014 4.725164 -2.098855 0.088613 -1.277550 0.000000 0.000000 0.000000 8.098046 8.713886 3.284863 -0.207613 6.251545 54.277092 0.068707 -0.067248 -13.605827 1.664540 0.891679 -29.262362 0.000000 0.000000 0.000000 14.233612 12.668881 -25.438272 -2.450219 -11.955738 47.898857 -7.829059 -2.634929 -15.263261 0.000001 0.000000 -0.399962 0.000000 0.000000 0.000000 
0.020689 94.043457 3.350960 -8.981950 5.301079 -6.014022 -8.409980 -20.268251 12.244944 5.804596 -3.124462 1.696679 5.760550 -3.031554 1.972672 -2.393143 -3.790293 -2.340126 12.626512 -22.365625 -9.107072 0.000000 0.000000 0.000000 0.000000 0.000000 0.000000 0.000000 0.000000 0.000000 -1.072098 -8.758655 1.150299 -47.082699 -66.465279 12.601761 -0.000105 -83.987358 -0.000051 0.835563 -7.227040 71.047058 6.061774 3.826431 -1.148864 1.299533 7.877598 4.081827 2.523226 1.599737 -0.508689 0.000000 0.000000 0.000000 -17.218843 2.038212 -0.308610 -16.558962 1.962397 -0.285586 -15.806412 1.875608 -0.260400 0.000000 0.000000 0.000000 -19.741947 2.325464 -0.404693 -18.258018 2.157045 -0.346659 -18.751389 2.213215 -0.365477 0.000000 0.000000 0.000000 -22.938318 2.682662 -0.544390 -20.330948 2.391881 -0.428944 -22.448771 2.628484 -0.521711 0.000000 0.000000 0.000000 -25.025799 7.021787 -0.629637 -22.473530 -1.176600 1.033104 -25.428114 2.955048 -0.666848 0.000000 0.000000 0.000000 -2.416352 -3.736159 -0.015713 37.328789 -3.042115 -66.307419 -179.999680 88.859406 -179.999710 -31.262211 18.755465 23.003731 28.869522 -3.355955 -0.863656 24.406931 -2.870241 -0.620529 15.364778 -1.842305 -0.248530 0.000000 0.000000 0.000000 25.732031 -3.017003 -0.689254 21.027624 -2.494168 -0.462963 11.975060 -1.442847 -0.151344 0.000000 0.000000 0.000000 21.816206 -2.583103 -0.497885 16.795208 -2.008963 -0.296602 7.751243 -0.940037 -0.063550 0.000000 0.000000 0.000000 18.686335 -2.227317 -0.366497 13.407761 -1.612397 -0.189538 4.377727 -0.530903 -0.020295 0.000000 0.000000 0.000000 -6.488741 -3.762498 -1.439570 -0.926598 -8.586014 4.725164 -2.098855 0.088613 -1.277550 0.000000 0.000000 0.000000 6.548387 6.341146 3.711917 0.137981 6.138574 48.525398 -0.366343 -0.069655 -13.374441 2.562789 1.353941 -29.505299 0.000000 0.000000 0.000000 13.763077 13.244266 -25.336987 -1.726049 -11.966571 43.586102 -7.701746 -2.907034 -13.004267 -0.000003 0.000000 -0.924273 0.000000 0.000000 0.000000 
0.536778 96.110886 2.972329 -8.836800 6.051003 -3.390546 -8.277947 -20.790022 13.397180 6.193224 -3.231097 1.574662 6.156144 -3.127696 1.875330 -1.426887 -3.036088 -4.332439 11.987309 -16.833422 -11.113431 0.000000 0.000000 0.000000 0.000000 0.000000 0.000000 0.000000 0.000000 0.000000 0.868267 -9.408824 1.004877 -37.630295 -71.805733 3.013576 -0.000206 -76.366394 -0.000008 2.689040 -9.738980 74.628586 6.061774 3.826431 -1.148864 1.299533 7.877598 4.081827 2.523226 1.599737 -0.508689 0.000000 0.000000 0.000000 -15.376535 1.825869 -0.246504 -15.637831 1.856119 -0.254909 -14.885369 1.768945 -0.231104 0.000000 0.000000 0.000000 -18.418970 2.175387 -0.352744 -17.595409 2.081355 -0.322160 -18.091148 2.138019 -0.340409 0.000000 0.000000 0.000000 -22.264519 2.608043 -0.513287 -19.993557 2.353862 -0.414972 -22.112482 2.591155 -0.506381 0.000000 0.000000 0.000000 -24.871281 7.005044 -0.621779 -22.396927 -1.187208 1.031514 -25.351145 2.946695 -0.662887 0.000000 0.000000 0.000000 -4.530744 -2.992664 0.018169 31.871244 -3.780017 -61.266514 -0.000080 82.022957 -0.000060 -28.723846 16.065348 26.467316 28.824251 -3.351165 -0.861006 24.384289 -2.867740 -0.619397 15.342188 -1.839663 -0.247811 0.000000 0.000000 0.000000 26.190559 -3.066916 -0.713584 21.255932 -2.519963 -0.472946 12.204363 -1.470056 -0.157170 0.000000 0.000000 0.000000 22.903288 -2.704888 -0.548035 17.338140 -2.071897 -0.315934 8.293764 -1.005226 -0.072740 0.000000 0.000000 0.000000 20.275818 -2.408920 -0.430800 14.201838 -1.705932 -0.212531 5.171246 -0.626895 -0.028308 0.000000 0.000000 0.000000 -6.488741 -3.762498 -1.439570 -0.926598 -8.586014 4.725164 -2.098855 0.088613 -1.277550 0.000000 0.000000 0.000000 4.410408 3.633701 4.214108 0.570023 6.451323 40.280228 -0.617952 0.022810 -11.439466 3.438615 1.740637 -29.043224 0.000000 0.000000 0.000000 12.582195 13.785281 -24.859600 -0.753496 -11.735126 36.410141 -7.501950 -3.035902 -9.174812 0.000003 0.000002 -1.581709 0.000000 0.000000 0.000000 
